<svg xmlns="http://www.w3.org/2000/svg" xmlns:xlink="http://www.w3.org/1999/xlink" width="400" height="400" viewBox="0 0 400 400"><defs><linearGradient id="gradient-16" x1="0%" y1="0%" x2="100%" y2="0%" gradientTransform="rotate(113.3, 0.5, 0.5)">       <stop offset="-1.8%" stop-color="rgba(134, 209, 228, 1)"/>       <stop offset="86.4%" stop-color="rgba(60, 80, 115, 1)"/>     </linearGradient></defs><g data-name="icon" fill="url(#gradient-16)" data="id:5749715" transform="translate(-3.606871193976012, -3.577213393787332) scale(4.071544578509946)">
    <path d="M10.6,50.1c-1.2,1.6-4.9,5.8-4.8,9.3c0,0.3,0,0.6,0.2,0.9c0.9,2.5,4.9,3.7,7.8,3.7  c13.8-0.2,32-7.8,33.8-8.6c3.1-1.3,7.2-3.5,12.1-6.6c-0.2-1.7-0.4-2.7-0.6-4.4c-1.1-0.9-2-1.9-3.1-2.8c-4.3,2.4-8.6,4.9-12.8,7.2  c-3.5,1.8-8.4,4.2-14.6,6.2C22.1,57.3,11,60,9,57.5C8.5,56.9,7.9,55.4,10.6,50.1z"/><path d="M71.6,43.8c0.4,2,0.7,4.1,0.7,6.3c0,5.8-1.7,11.3-4.7,15.8c-1.2-2.7-3.7-6.7-4.5-7.5  c-0.7-0.8-1.7-1.2-2.9-1.1c-2,0.2-2.7,1.3-3.2,1.9c-0.7,0.7-1.8,2.9-3,4.3c-0.8,0.9-1,1-1.3,1.1c-0.7,0.2-1.1-0.4-2.1-0.4  c-0.7,0-1.3,0.3-1.6,0.4c-1.3,0.8-1.8,2.7-1.5,4.1c0.3,1.6,1.3,2.5,2,3.1c2,1.7,4.2,3.4,6.1,4.5c-1.9,0.9-3.8,1.5-5.9,2  c-8.9-0.4-16.4-5.2-16.2-11.8c0-1.8,0.3-3.4,0.6-4.8c-6.9,2.1-13.3,3.2-19.2,3.3C20.2,75.2,31,82.2,43.3,82.2  c17.7,0,32.1-14.4,32.1-32.1c0-2.5-0.3-5-0.9-7.4L71.6,43.8z"/><path d="M25,54.8c4-1.2,8-2.8,11.9-4.5c0.4-0.4,0.6-1,0.9-2.2c0.3-1.1,0.5-2.7,0.5-2.8c0.2-1.1,0.2-1.4,0.1-2.1  c-0.2-1.7-3-2.3-4.8-2.2c-0.6,0-1.4,0.1-2,0.7c-0.7,0.7-0.5,1.5-0.7,2.7c-0.4,2-1.7,3.6-3.1,4.5c-1,0.6-3,1.4-4.2,0.6  c-0.4-0.3-0.6-0.7-1.1-2.5c-0.8-3.5-0.6-4.3-1.2-5.4c-0.6-1-2.6-2.3-4.8-3.2c3.8-8.7,11.8-15.2,21.4-17c1.8,1.1,3.6,2.3,4.5,3.1  c1.2,1,1.4,2.2,1.3,2.8c-0.1,1.3-0.7,1.8-1.3,2.9c0,0-0.5,0.6-1.3,2.4c-0.5,1.1-0.7,1.9-0.5,2.8c0.2,0.9,1.1,1.6,1.5,1.9  c0.3,0.3,0.9,0.8,2.8,1.8c1.1,0.6,2.5,0.5,3,0.3c1.1-0.5,1.5-1,1.9-1.7c0.2-0.5,0.3-1.3,0.6-2.7c0.4-2.5,0.4-2.8,0.8-3.2  c0.4-0.4,1.1-0.8,1.7-0.7c0.7,0.1,0.9,0.6,1.5,0.7c0.7,0.1,1.2-0.4,1.8-0.9c0.6-0.6,2.4-2.6,3.9-4.5c3.1,2.2,5.8,5.1,7.8,8.3  l2.7-1.5C65,24.1,54.9,17.9,43.3,17.9c-17.7,0-32.1,14.4-32.1,32.1c0,2.5,0.3,5,0.8,7.3C15.9,57.6,22.2,55.7,25,54.8z"/><path d="M94.1,28.5c-0.8-1.9-5.6-1.8-11.1,0.1L83,28.5L64.6,17.8L61,20.3l11.6,13.7l-5.5,2.8l-8.6-1.6L55.6,37  l6.2,6.1l1.2,8.5l3.4-1.1l3.7-7.4l5.9-2.4L79,58.2l4.3-0.9L86.5,36l-0.1-0.2C91.5,33.5,94.9,30.4,94.1,28.5z"/>
    </g></svg>